<?xml version="1.0" standalone="no"?>
<!DOCTYPE svg PUBLIC "-//W3C//DTD SVG 20010904//EN"
 "http://www.w3.org/TR/2001/REC-SVG-20010904/DTD/svg10.dtd">
<svg version="1.0" xmlns="http://www.w3.org/2000/svg"
 width="1080.000000pt" height="1080.000000pt" viewBox="0 0 1080.000000 1080.000000"
 preserveAspectRatio="xMidYMid meet">
<metadata>
Created by potrace 1.14, written by Peter Selinger 2001-2017
</metadata>
<g transform="translate(0.000000,1080.000000) scale(0.100000,-0.100000)"
fill="#000000" stroke="none">
<path d="M6573 8823 c-35 -30 -26 -8 -277 -688 -59 -159 -114 -306 -121 -325
-8 -19 -51 -134 -96 -255 -44 -121 -110 -299 -146 -395 -36 -96 -81 -218 -99
-270 -19 -52 -38 -104 -43 -115 -9 -18 -320 -858 -531 -1430 -43 -115 -164
-442 -270 -725 -105 -283 -194 -523 -197 -532 -3 -10 -8 -18 -12 -18 -3 0 -24
33 -45 73 -75 141 -114 213 -178 332 -36 66 -86 158 -110 205 -25 47 -92 173
-150 280 -58 107 -129 240 -158 295 -29 55 -61 114 -70 130 -10 17 -41 75 -70
130 -29 55 -81 152 -115 215 -64 117 -113 209 -186 348 -23 42 -54 100 -69
127 -15 28 -45 84 -67 125 -22 41 -56 104 -75 140 -19 36 -57 106 -83 155 -27
50 -69 128 -94 175 -25 47 -55 102 -66 123 -33 63 -68 89 -124 95 -57 5 -73
-4 -197 -114 -110 -98 -309 -263 -599 -499 -238 -193 -516 -421 -549 -450 -6
-5 -40 -35 -76 -65 -36 -30 -70 -60 -76 -65 -6 -6 -54 -48 -107 -94 -53 -46
-103 -94 -112 -107 -29 -45 -12 -148 29 -171 72 -41 759 -718 961 -947 6 -6
30 -34 55 -62 314 -350 696 -822 885 -1094 11 -16 67 -95 126 -177 105 -147
238 -348 359 -538 82 -128 230 -374 230 -381 0 -3 14 -25 30 -49 17 -24 30
-46 30 -49 0 -2 22 -43 50 -91 74 -129 131 -235 266 -500 135 -265 151 -285
229 -285 75 0 104 29 153 155 24 61 47 119 52 130 5 11 22 56 40 100 17 44 37
94 45 110 7 17 23 55 35 85 12 30 37 88 56 128 19 41 34 75 34 78 0 5 110 254
159 359 23 48 41 88 41 90 0 21 363 746 515 1030 18 33 51 96 75 140 24 44 73
134 110 200 37 66 78 138 90 160 20 36 89 155 115 197 5 9 18 31 28 49 13 25
197 331 260 433 101 165 124 199 350 541 261 394 623 905 779 1100 5 6 76 98
160 205 83 107 154 197 157 200 4 3 31 37 61 75 49 63 339 414 365 441 6 6 31
35 56 64 24 28 53 62 64 74 41 46 82 93 140 161 33 39 65 75 71 80 6 6 64 69
130 140 65 72 148 162 185 200 37 39 83 88 104 110 20 22 96 101 169 175 73
74 138 145 145 157 19 36 13 103 -11 140 -37 53 -31 52 -378 78 -36 3 -94 7
-130 10 -36 3 -92 8 -125 10 -33 3 -82 7 -110 10 -27 2 -86 7 -130 10 -44 3
-102 8 -130 10 -48 4 -106 9 -260 21 -38 3 -90 7 -115 9 -25 2 -83 7 -130 10
-47 4 -103 8 -125 10 -22 2 -69 6 -105 9 -36 3 -94 8 -130 11 -36 3 -94 8
-130 10 -36 2 -90 6 -120 9 -84 8 -176 15 -270 21 -47 4 -101 8 -120 11 -19 2
-89 6 -155 10 l-120 6 -32 -29z"/>
</g>
</svg>
